HIERARCHY
ROOT Hips
{
 OFFSET 0.000000 0.000000 0.000000
 CHANNELS 6 Xposition Yposition Zposition Yrotation Xrotation Zrotation
 JOINT Chest
 {
  OFFSET 0.000000 10.383400 0.001500
  CHANNELS 3 Yrotation Xrotation Zrotation
  JOINT Chest2
  {
   OFFSET 0.000000 10.418200 -0.003100
   CHANNELS 3 Yrotation Xrotation Zrotation
   JOINT Chest3
   {
    OFFSET 0.000000 10.375100 0.000000
    CHANNELS 3 Yrotation Xrotation Zrotation
    JOINT Chest4
    {
     OFFSET 0.000000 10.364600 0.000000
     CHANNELS 3 Yrotation Xrotation Zrotation
     JOINT Neck
     {
      OFFSET 0.000000 15.642200 0.000000
      CHANNELS 3 Yrotation Xrotation Zrotation
      JOINT Head
      {
       OFFSET 0.000000 9.697300 -0.006500
       CHANNELS 3 Yrotation Xrotation Zrotation
       End Site
       {
        OFFSET 0.000000 18.492200 -0.003400
       }
      }
     }
     JOINT RightCollar
     {
      OFFSET -3.166800 10.349300 0.000000
      CHANNELS 3 Yrotation Xrotation Zrotation
      JOINT RightShoulder
      {
       OFFSET -14.729700 0.000000 0.000000
       CHANNELS 3 Yrotation Xrotation Zrotation
       JOINT RightElbow
       {
        OFFSET 0.000000 -32.224300 0.000000
        CHANNELS 3 Yrotation Xrotation Zrotation
        JOINT RightWrist
        {
         OFFSET 0.000000 -26.084100 0.000000
         CHANNELS 3 Yrotation Xrotation Zrotation
         End Site
         {
          OFFSET 0.000000 -19.319400 0.000000
         }
        }
       }
      }
     }
     JOINT LeftCollar
     {
      OFFSET 3.166800 10.349300 0.000000
      CHANNELS 3 Yrotation Xrotation Zrotation
      JOINT LeftShoulder
      {
       OFFSET 14.729700 0.000000 0.000000
       CHANNELS 3 Yrotation Xrotation Zrotation
       JOINT LeftElbow
       {
        OFFSET 0.000000 -32.224300 0.000000
        CHANNELS 3 Yrotation Xrotation Zrotation
        JOINT LeftWrist
        {
         OFFSET 0.000000 -26.084100 0.000000
         CHANNELS 3 Yrotation Xrotation Zrotation
         End Site
         {
          OFFSET 0.000000 -19.319400 0.000000
         }
        }
       }
      }
     }
    }
   }
  }
 }
 JOINT RightHip
 {
  OFFSET -8.428900 -0.007500 -0.000800
  CHANNELS 3 Yrotation Xrotation Zrotation
  JOINT RightKnee
  {
   OFFSET 0.000000 -43.834600 0.000700
   CHANNELS 3 Yrotation Xrotation Zrotation
   JOINT RightAnkle
   {
    OFFSET 0.000000 -42.757000 0.001200
    CHANNELS 3 Yrotation Xrotation Zrotation
    JOINT RightToe
    {
     OFFSET 0.000000 -6.946900 15.649300
     CHANNELS 3 Yrotation Xrotation Zrotation
     End Site
     {
      OFFSET 0.000000 -1.580800 6.825800
     }
    }
   }
  }
 }
 JOINT LeftHip
 {
  OFFSET 8.428900 -0.007500 -0.000800
  CHANNELS 3 Yrotation Xrotation Zrotation
  JOINT LeftKnee
  {
   OFFSET 0.000000 -43.834600 0.000700
   CHANNELS 3 Yrotation Xrotation Zrotation
   JOINT LeftAnkle
   {
    OFFSET 0.000000 -42.757000 0.001200
    CHANNELS 3 Yrotation Xrotation Zrotation
    JOINT LeftToe
    {
     OFFSET 0.000000 -6.946900 15.649300
     CHANNELS 3 Yrotation Xrotation Zrotation
     End Site
     {
      OFFSET 0.000000 -1.580800 6.825800
     }
    }
   }
  }
 }
}
MOTION
Frames: 8
Frame Time: 0.008333
0.000000 93.354300 0.000000 0.000000 -5.767877 0.000000 0.000000 11.653817 0.000000 0.000000 -5.885947 0.000000 0.000000 -0.000000 0.000000 0.000000 -0.000000 0.000000 0.000000 12.528835 0.000000 0.000000 0.711642 0.000000 0.000000 -0.000000 0.000000 0.000000 0.000000 -90.000000 0.000000 -2.309062 0.000000 0.000000 2.309062 0.000000 0.000000 -0.000000 0.000000 0.000000 -0.000000 90.000000 0.000000 -2.309062 0.000000 0.000000 2.309062 0.000000 0.000000 8.520406 0.000000 0.000000 1.905762 0.000000 -0.000000 -4.658285 0.000000 0.000000 -0.000000 0.000000 0.000000 8.520406 0.000000 0.000000 1.905762 0.000000 -0.000000 -4.658285 0.000000 0.000000 -0.000000 0.000000
-1.090119 151.165006 -2.988297 175.397311 -12.937815 -3.065151 -0.342039 14.347971 1.846769 -0.048911 1.260716 0.162746 -0.082365 2.131204 0.274888 -0.337017 12.877070 1.637404 -1.434022 11.645114 -2.901858 -0.852332 -13.414622 -2.733474 4.435910 -2.365698 0.596417 15.888553 -17.765164 -13.364131 52.517367 -43.445956 -28.186326 17.538352 4.012170 -26.185585 -8.067770 -1.037126 -1.184576 1.597642 -21.315829 8.510522 -17.821974 -53.384757 -3.441054 -11.110889 -1.490745 11.744459 1.431611 -55.217153 7.990966 -79.232455 83.615624 -75.947218 -0.869366 -18.963224 0.428564 -0.005584 0.015618 0.002678 3.778427 -55.068266 -7.189705 93.281756 79.589100 99.683093 8.728893 -21.372637 -9.851996 0.001491 -0.023469 0.000850
-1.849857 143.180134 -2.012732 175.394678 -12.939719 -3.055352 -0.349919 14.352235 1.838077 -0.048868 1.261682 0.162869 -0.076200 2.129539 0.272242 -0.338841 12.878989 1.639235 -1.444800 11.660909 -2.877872 -0.851413 -13.418367 -2.737840 4.438288 -2.368433 0.579731 15.885351 -17.766568 -13.348657 52.521610 -43.440765 -28.184180 17.534478 4.019064 -26.183104 -8.067418 -1.043524 -1.176275 1.604839 -21.308792 8.488954 -17.815111 -53.366424 -3.428266 -11.102626 -1.511231 11.743984 1.446152 -55.213271 7.975293 -79.199076 83.619452 -75.917252 -0.874743 -18.953170 0.429183 -0.003488 0.009718 -0.001549 3.791632 -55.067336 -7.203709 93.311022 79.589769 99.713435 8.725691 -21.383781 -9.850941 0.000075 -0.017102 0.000033
-2.475124 136.604344 -1.209419 175.386910 -12.941843 -3.048346 -0.348436 14.354226 1.831998 -0.048671 1.261863 0.162894 -0.079217 2.131979 0.274720 -0.333601 12.877280 1.636808 -1.449085 11.666718 -2.864900 -0.857471 -13.411225 -2.724207 4.438897 -2.369237 0.572093 15.884963 -17.767354 -13.341564 52.523902 -43.438000 -28.182699 17.533195 4.026777 -26.173778 -8.070445 -1.046991 -1.165296 1.607470 -21.306958 8.467228 -17.800634 -53.354340 -3.425740 -11.093873 -1.522940 11.744501 1.461304 -55.209239 7.965241 -79.166297 83.619279 -75.885806 -0.876121 -18.945659 0.429545 -0.001261 0.003063 -0.000560 3.803776 -55.066347 -7.210079 93.344098 79.591078 99.746129 8.731284 -21.394087 -9.852933 0.000073 -0.011726 0.000032
-2.926868 131.855009 -0.629035 175.378423 -12.941341 -3.042254 -0.344094 14.354032 1.826405 -0.049211 1.260945 0.163227 -0.076876 2.132466 0.274938 -0.331785 12.879360 1.636889 -1.456079 11.670142 -2.851570 -0.863645 -13.405656 -2.707963 4.436350 -2.371508 0.567382 15.882160 -17.767463 -13.331422 52.533221 -43.432555 -28.184143 17.530353 4.029184 -26.175937 -8.077901 -1.049784 -1.152490 1.621141 -21.309740 8.442821 -17.791589 -53.340720 -3.427290 -11.083015 -1.533819 11.750196 1.470112 -55.210162 7.961096 -79.149367 83.620337 -75.872008 -0.877921 -18.937578 0.429248 0.000959 -0.002520 0.000425 3.816828 -55.067732 -7.216041 93.355451 79.590628 99.755604 8.736644 -21.399635 -9.852642 -0.001029 -0.007550 -0.000457
-3.212405 128.855302 -0.262505 175.375601 -12.939525 -3.038486 -0.341154 14.355068 1.822023 -0.049140 1.260821 0.163072 -0.081733 2.128293 0.276057 -0.327440 12.881078 1.632911 -1.462534 11.676750 -2.835626 -0.872596 -13.400326 -2.689290 4.428630 -2.378375 0.557378 15.886275 -17.768302 -13.315230 52.538415 -43.422370 -28.169543 17.530703 4.041473 -26.165571 -8.082404 -1.049113 -1.141885 1.620827 -21.314501 8.430002 -17.778685 -53.327853 -3.426876 -11.079982 -1.540509 11.755084 1.469193 -55.210094 7.962729 -79.114535 83.615289 -75.843084 -0.878316 -18.931869 0.427106 0.002057 -0.005346 0.000913 3.817209 -55.068811 -7.214186 93.352969 79.594147 99.747258 8.740293 -21.403971 -9.850780 -0.001989 -0.003030 -0.000883
-3.370031 127.205202 -0.060717 175.377694 -12.934943 -3.035341 -0.341817 14.355518 1.816292 -0.048221 1.261699 0.162509 -0.081952 2.124914 0.277385 -0.327689 12.883053 1.631285 -1.469422 11.680612 -2.821265 -0.886292 -13.396475 -2.669244 4.422488 -2.385287 0.552060 15.886734 -17.770146 -13.305851 52.533560 -43.406013 -28.144195 17.517192 4.055985 -26.155788 -8.089600 -1.051877 -1.130440 1.628727 -21.317027 8.417126 -17.780875 -53.323045 -3.421545 -11.070614 -1.543942 11.764077 1.469658 -55.214605 7.959157 -79.116851 83.611759 -75.850603 -0.879948 -18.928807 0.429594 0.001093 -0.007326 0.000485 3.810427 -55.073166 -7.211346 93.352838 79.596777 99.740447 8.742554 -21.406352 -9.850322 -0.001671 0.000049 -0.000742
-3.444846 126.419379 0.035072 175.378077 -12.932114 -3.036713 -0.340485 14.356534 1.815136 -0.047684 1.262705 0.161527 -0.081036 2.126881 0.278409 -0.328731 12.878345 1.632937 -1.473674 11.685229 -2.809171 -0.901586 -13.391339 -2.650633 4.420129 -2.388242 0.542299 15.883281 -17.773789 -13.295667 52.523192 -43.405234 -28.124659 17.506406 4.058093 -26.156865 -8.105203 -1.054300 -1.094819 1.653691 -21.315790 8.378979 -17.771610 -53.315777 -3.421526 -11.055800 -1.551933 11.774043 1.469137 -55.215894 7.960573 -79.100257 83.612935 -75.833749 -0.883610 -18.926922 0.426472 0.001303 -0.006828 0.000578 3.806925 -55.075982 -7.209178 93.348192 79.597949 99.733966 8.765787 -21.404946 -9.858469 0.002805 0.001137 0.001245
